<?xml version="1.0" encoding="utf-8" standalone="no"?>
<!DOCTYPE svg PUBLIC "-//W3C//DTD SVG 1.1//EN"
  "http://www.w3.org/Graphics/SVG/1.1/DTD/svg11.dtd">
<svg height="432pt" version="1.1" viewBox="0 0 864 432" width="864pt" xmlns="http://www.w3.org/2000/svg" xmlns:xlink="http://www.w3.org/1999/xlink">
 <metadata>
  <rdf:RDF xmlns:cc="http://creativecommons.org/ns#" xmlns:dc="http://purl.org/dc/elements/1.1/" xmlns:rdf="http://www.w3.org/1999/02/22-rdf-syntax-ns#">
   <cc:Work>
    <dc:type rdf:resource="http://purl.org/dc/dcmitype/StillImage"/>
    <dc:date>2021-09-10T20:25:47.374528</dc:date>
    <dc:format>image/svg+xml</dc:format>
    <dc:creator>
     <cc:Agent>
      <dc:title>Matplotlib v3.4.0, https://matplotlib.org/</dc:title>
     </cc:Agent>
    </dc:creator>
   </cc:Work>
  </rdf:RDF>
 </metadata>
 <defs>
  <style type="text/css">*{stroke-linecap:butt;stroke-linejoin:round;}</style>
 </defs>
 <g id="figure_1">
  <g id="patch_1">
   <path d="M 0 432
L 864 432
L 864 0
L 0 0
z
" style="fill:#ffffff;"/>
  </g>
  <g id="axes_1">
   <g id="line2d_1">
    <path clip-path="url(#pe78aea17a0)" d="M 108 218.16
L 777.6 218.16
" style="fill:none;stroke:#008000;stroke-dasharray:7.4,3.2;stroke-dashoffset:0;stroke-opacity:0.5;stroke-width:2;"/>
   </g>
   <g id="line2d_2">
    <path clip-path="url(#pe78aea17a0)" d="M 442.8 384.48
L 442.8 51.84
" style="fill:none;stroke:#008000;stroke-dasharray:7.4,3.2;stroke-dashoffset:0;stroke-opacity:0.5;stroke-width:2;"/>
   </g>
   <g id="patch_2">
    <path clip-path="url(#pe78aea17a0)" d="M 392.58 251.424
L 493.02 251.424
L 493.02 184.896
L 392.58 184.896
z
" style="fill:none;stroke:#ff0000;stroke-linejoin:miter;stroke-width:4;"/>
   </g>
   <g id="patch_3">
    <path clip-path="url(#pe78aea17a0)" d="M 442.8 301.32
C 453.791383 301.32 464.675889 299.168905 474.830603 294.989822
C 484.985317 290.810739 494.212756 284.684939 501.984838 276.963
" style="fill:none;opacity:0.5;stroke:#008000;stroke-dasharray:7.4,3.2;stroke-dashoffset:0;stroke-linejoin:miter;stroke-width:2;"/>
   </g>
   <g id="patch_4">
    <path clip-path="url(#pe78aea17a0)" d="M 301.347 218.16
L 308.88 215.6652
L 308.88 217.3284
L 442.8 217.3284
L 442.8 218.9916
L 308.88 218.9916
L 308.88 220.6548
z
" style="fill:#0000ff;stroke:#0000ff;stroke-linejoin:miter;"/>
   </g>
   <g id="patch_5">
    <path clip-path="url(#pe78aea17a0)" d="M 301.347 218.16
L 308.88 215.6652
L 308.88 217.3284
L 442.8 217.3284
L 442.8 218.9916
L 308.88 218.9916
L 308.88 220.6548
z
" style="fill:#0000ff;stroke:#0000ff;stroke-linejoin:miter;"/>
   </g>
   <g id="patch_6">
    <path clip-path="url(#pe78aea17a0)" d="M 375.84 375.3324
L 373.329 367.848
L 375.003 367.848
L 375.003 284.688
L 376.677 284.688
L 376.677 367.848
L 378.351 367.848
z
" style="fill:#0000ff;stroke:#0000ff;stroke-linejoin:miter;"/>
   </g>
   <g id="line2d_3">
    <path clip-path="url(#pe78aea17a0)" d="M 442.8 218.16
L 593.46 367.848
" style="fill:none;stroke:#ffa500;stroke-linecap:square;stroke-width:8;"/>
   </g>
   <g id="patch_7">
    <path d="M 599.618462 357.33473
Q 526.500155 284.688154 453.381848 212.041578
" style="fill:none;stroke:#008000;stroke-linecap:round;"/>
    <path d="M 598.190525 353.096688
L 599.618462 357.33473
L 595.371266 355.934254
" style="fill:none;stroke:#008000;stroke-linecap:round;"/>
    <path d="M 454.809784 216.27962
L 453.381848 212.041578
L 457.629043 213.442054
" style="fill:none;stroke:#008000;stroke-linecap:round;"/>
   </g>
   <g id="text_1">
    <!-- $\theta$ -->
    <g style="fill:#008000;" transform="translate(459.54 284.688)scale(0.2 -0.2)">
     <defs>
      <path d="M 2835 3200
C 2835 3850 2630 4480 2106 4480
C 1210 4480 256 2615 256 1216
C 256 923 320 -64 992 -64
C 1862 -64 2835 1756 2835 3200
z
M 896 2304
C 992 2679 1126 3214 1382 3665
C 1594 4047 1818 4352 2099 4352
C 2310 4352 2451 4174 2451 3564
C 2451 3334 2432 3017 2246 2304
L 896 2304
z
M 2202 2113
C 2042 1490 1907 1088 1677 687
C 1491 363 1267 64 998 64
C 800 64 640 217 640 846
C 640 1260 742 1693 845 2113
L 2202 2113
z
" id="CMMI12-12" transform="scale(0.015625)"/>
     </defs>
     <use transform="scale(0.996264)" xlink:href="#CMMI12-12"/>
    </g>
   </g>
   <g id="text_2">
    <!-- $m_{c}$ -->
    <g style="fill:#ff0000;" transform="translate(409.32 209.844)scale(0.2 -0.2)">
     <defs>
      <path d="M 1318 1871
C 1331 1910 1491 2229 1728 2433
C 1894 2586 2112 2689 2362 2689
C 2618 2689 2707 2497 2707 2242
C 2707 2203 2707 2076 2630 1775
L 2470 1118
C 2419 926 2298 453 2285 383
C 2259 287 2221 121 2221 96
C 2221 6 2291 -64 2387 -64
C 2579 -64 2611 83 2669 313
L 3053 1839
C 3066 1890 3398 2689 4102 2689
C 4358 2689 4448 2497 4448 2242
C 4448 1884 4198 1188 4058 805
C 4000 651 3968 568 3968 453
C 3968 166 4166 -64 4474 -64
C 5069 -64 5293 875 5293 913
C 5293 945 5267 971 5229 971
C 5171 971 5165 952 5133 843
C 4986 332 4749 64 4493 64
C 4429 64 4326 64 4326 269
C 4326 436 4403 640 4429 710
C 4544 1018 4832 1773 4832 2145
C 4832 2528 4608 2816 4122 2816
C 3693 2816 3347 2574 3091 2197
C 3072 2542 2861 2816 2381 2816
C 1811 2816 1510 2415 1395 2255
C 1376 2618 1114 2816 832 2816
C 646 2816 499 2727 378 2484
C 262 2254 173 1865 173 1839
C 173 1814 198 1782 243 1782
C 294 1782 301 1788 339 1935
C 435 2312 557 2689 813 2689
C 960 2689 1011 2586 1011 2395
C 1011 2254 947 2005 902 1807
L 723 1118
C 698 996 627 709 595 594
C 550 428 480 128 480 96
C 480 6 550 -64 646 -64
C 723 -64 813 -26 864 70
C 877 102 934 326 966 453
L 1107 1028
L 1318 1871
z
" id="CMMI12-6d" transform="scale(0.015625)"/>
      <path d="M 2502 2431
C 2381 2431 2323 2431 2234 2355
C 2195 2323 2125 2227 2125 2125
C 2125 1997 2221 1920 2342 1920
C 2496 1920 2669 2044 2669 2292
C 2669 2588 2374 2816 1933 2816
C 1094 2816 256 1903 256 996
C 256 441 602 -64 1254 -64
C 2125 -64 2675 622 2675 706
C 2675 744 2637 776 2611 776
C 2592 776 2586 770 2528 713
C 2118 162 1510 64 1267 64
C 826 64 685 446 685 764
C 685 988 794 1605 1024 2039
C 1190 2338 1536 2682 1939 2682
C 2022 2682 2374 2682 2502 2431
z
" id="CMMI12-63" transform="scale(0.015625)"/>
     </defs>
     <use transform="scale(0.996264)" xlink:href="#CMMI12-6d"/>
     <use transform="translate(85.327224 -14.943915)scale(0.697382)" xlink:href="#CMMI12-63"/>
    </g>
   </g>
   <g id="text_3">
    <!-- $m_{p}$ -->
    <g style="fill:#ffa500;" transform="translate(493.02 317.952)scale(0.2 -0.2)">
     <defs>
      <path d="M 275 -789
C 230 -980 205 -1031 -58 -1031
C -134 -1031 -198 -1031 -198 -1152
C -198 -1165 -192 -1216 -122 -1216
C -38 -1216 51 -1216 134 -1216
L 410 -1216
C 544 -1216 870 -1216 1005 -1216
C 1043 -1216 1120 -1216 1120 -1101
C 1120 -1031 1075 -1031 966 -1031
C 672 -1031 653 -987 653 -937
C 653 -861 941 219 979 364
C 1050 185 1222 -64 1555 -64
C 2278 -64 3059 875 3059 1814
C 3059 2401 2726 2816 2246 2816
C 1837 2816 1491 2420 1421 2331
C 1370 2650 1120 2816 864 2816
C 678 2816 531 2727 410 2484
C 294 2254 205 1865 205 1839
C 205 1814 230 1782 275 1782
C 326 1782 333 1788 371 1935
C 467 2312 589 2689 845 2689
C 992 2689 1043 2587 1043 2397
C 1043 2245 1024 2181 998 2067
L 275 -789
z
M 1382 1993
C 1427 2171 1606 2357 1709 2446
C 1779 2510 1990 2689 2234 2689
C 2515 2689 2643 2408 2643 2076
C 2643 1769 2464 1047 2304 715
C 2144 370 1850 64 1555 64
C 1120 64 1050 613 1050 639
C 1050 658 1062 709 1069 741
L 1382 1993
z
" id="CMMI12-70" transform="scale(0.015625)"/>
     </defs>
     <use transform="scale(0.996264)" xlink:href="#CMMI12-6d"/>
     <use transform="translate(85.327224 -14.943915)scale(0.697382)" xlink:href="#CMMI12-70"/>
    </g>
   </g>
   <g id="text_4">
    <!-- $l$ -->
    <g style="fill:#008000;" transform="translate(534.87 276.372)scale(0.2 -0.2)">
     <defs>
      <path d="M 1626 4257
C 1632 4282 1645 4320 1645 4352
C 1645 4416 1581 4416 1568 4416
C 1562 4416 1331 4393 1216 4377
C 1107 4377 1011 4358 896 4358
C 742 4345 698 4339 698 4224
C 698 4160 762 4160 826 4160
C 1152 4160 1152 4102 1152 4039
C 1152 4014 1152 4001 1120 3887
L 326 731
C 307 661 294 610 294 509
C 294 191 531 -64 858 -64
C 1069 -64 1210 76 1312 274
C 1421 483 1510 884 1510 909
C 1510 941 1485 967 1446 967
C 1389 967 1382 935 1357 840
C 1242 401 1126 64 870 64
C 678 64 678 267 678 357
C 678 382 678 515 723 694
L 1626 4257
z
" id="CMMI12-6c" transform="scale(0.015625)"/>
     </defs>
     <use transform="scale(0.996264)" xlink:href="#CMMI12-6c"/>
    </g>
   </g>
   <g id="text_5">
    <!-- $x$ -->
    <g style="fill:#008000;" transform="translate(559.98 209.844)scale(0.2 -0.2)">
     <defs>
      <path d="M 3034 2606
C 2829 2567 2752 2414 2752 2293
C 2752 2139 2874 2088 2963 2088
C 3155 2088 3290 2254 3290 2427
C 3290 2695 2982 2816 2714 2816
C 2323 2816 2106 2433 2048 2312
C 1901 2816 1504 2816 1389 2816
C 736 2816 390 1980 390 1839
C 390 1814 416 1782 461 1782
C 512 1782 525 1820 538 1846
C 755 2555 1184 2689 1370 2689
C 1658 2689 1715 2420 1715 2267
C 1715 2127 1677 1980 1600 1673
L 1382 798
C 1286 415 1101 64 762 64
C 730 64 570 64 435 147
C 666 192 717 383 717 460
C 717 588 621 664 499 664
C 346 664 179 530 179 326
C 179 57 480 -64 755 -64
C 1062 -64 1280 179 1414 441
C 1517 64 1837 -64 2074 -64
C 2726 -64 3072 773 3072 913
C 3072 945 3046 971 3008 971
C 2950 971 2944 939 2925 888
C 2752 326 2381 64 2093 64
C 1869 64 1747 230 1747 492
C 1747 632 1773 734 1875 1156
L 2099 2024
C 2195 2408 2413 2689 2707 2689
C 2720 2689 2899 2689 3034 2606
z
" id="CMMI12-78" transform="scale(0.015625)"/>
     </defs>
     <use transform="scale(0.996264)" xlink:href="#CMMI12-78"/>
    </g>
   </g>
   <g id="text_6">
    <!-- $g$ -->
    <g style="fill:#0000ff;" transform="translate(384.21 334.584)scale(0.2 -0.2)">
     <defs>
      <path d="M 2163 811
C 2138 709 2125 683 2042 588
C 1779 249 1510 128 1312 128
C 1101 128 902 294 902 734
C 902 1073 1094 1788 1235 2076
C 1421 2433 1709 2689 1978 2689
C 2400 2689 2483 2165 2483 2127
L 2464 2037
L 2163 811
z
M 2560 2395
C 2477 2580 2298 2816 1978 2816
C 1280 2816 486 1941 486 990
C 486 326 890 0 1299 0
C 1638 0 1939 268 2054 396
L 1914 -171
C 1824 -516 1786 -674 1555 -894
C 1293 -1152 1050 -1152 909 -1152
C 717 -1152 557 -1139 397 -1089
C 602 -1033 653 -858 653 -789
C 653 -689 576 -588 435 -588
C 282 -588 115 -714 115 -922
C 115 -1180 378 -1280 922 -1280
C 1747 -1280 2176 -753 2259 -410
L 2970 2435
C 2989 2511 2989 2524 2989 2536
C 2989 2625 2918 2695 2822 2695
C 2669 2695 2579 2567 2560 2395
z
" id="CMMI12-67" transform="scale(0.015625)"/>
     </defs>
     <use transform="scale(0.996264)" xlink:href="#CMMI12-67"/>
    </g>
   </g>
   <g id="text_7">
    <!-- $f$ -->
    <g style="fill:#0000ff;" transform="translate(359.1 209.844)scale(0.2 -0.2)">
     <defs>
      <path d="M 2854 2566
C 2982 2566 3034 2566 3034 2688
C 3034 2752 2982 2752 2867 2752
L 2349 2752
C 2470 3429 2560 3897 2611 4107
C 2650 4265 2784 4416 2950 4416
C 3085 4416 3219 4358 3283 4298
C 3034 4272 2957 4082 2957 3969
C 2957 3837 3053 3759 3174 3759
C 3302 3759 3494 3870 3494 4119
C 3494 4393 3226 4544 2944 4544
C 2669 4544 2400 4334 2272 4078
C 2157 3848 2093 3611 1946 2752
L 1517 2752
C 1395 2752 1331 2752 1331 2637
C 1331 2566 1370 2566 1498 2566
L 1907 2566
C 1792 1976 1530 542 1382 -137
C 1274 -689 1178 -1152 858 -1152
C 838 -1152 653 -1152 538 -1031
C 864 -1005 864 -726 864 -720
C 864 -593 768 -517 646 -517
C 518 -517 326 -625 326 -867
C 326 -1140 608 -1280 858 -1280
C 1510 -1280 1779 -118 1850 199
C 1965 688 2278 2376 2310 2566
L 2854 2566
z
" id="CMMI12-66" transform="scale(0.015625)"/>
     </defs>
     <use transform="scale(0.996264)" xlink:href="#CMMI12-66"/>
    </g>
   </g>
   <g id="text_8">
    <!-- $\theta$ -->
    <g style="fill:#008000;" transform="translate(459.54 284.688)scale(0.2 -0.2)">
     <use transform="scale(0.996264)" xlink:href="#CMMI12-12"/>
    </g>
   </g>
  </g>
 </g>
 <defs>
  <clipPath id="pe78aea17a0">
   <rect height="332.64" width="669.6" x="108" y="51.84"/>
  </clipPath>
 </defs>
</svg>
